<svg xmlns="http://www.w3.org/2000/svg" viewBox="0 0 12 6" height="6" width="12"><g xmlns="http://www.w3.org/2000/svg" transform="matrix(-1 0 0 -1 12 6)"><path id="Vector" d="M6.05019 5.99775C6.17336 5.98723 6.29024 5.93636 6.38318 5.85276L11.7842 1.06321C11.9067 0.960891 11.9843 0.8118 11.998 0.650437C12.0111 0.48849 11.9603 0.328295 11.8566 0.205503C11.7522 0.0833081 11.6045 0.0090568 11.4466 0.000869662C11.2881 -0.0079003 11.1335 0.0499806 11.0178 0.160481L6 4.60862L0.982212 0.160481C0.866461 0.0499806 0.71193 -0.0079012 0.553419 0.000869662C0.395478 0.00905485 0.247783 0.0833066 0.143442 0.205503C0.0396651 0.328282 -0.0110836 0.488476 0.00203202 0.650437C0.0157169 0.8118 0.0932645 0.96089 0.215852 1.06321L5.61682 5.85276C5.73599 5.95975 5.89281 6.01178 6.05019 5.99775Z" fill="black" /></g></svg>